<svg width="81" height="68" viewBox="0 0 81 68" fill="none" xmlns="http://www.w3.org/2000/svg">
<path d="M69.4126 0.0233677C61.2026 -0.507301 47.8581 8.07127 39.0729 19.5982C37.3499 21.8714 35.6014 23.8785 35.2653 24.0348C34.9292 24.1912 33.4339 21.9597 31.9574 19.0653C23.6934 2.94325 7.91395 -1.98085 1.64449 9.71673C-3.43412 19.1924 3.78449 42.914 15.9605 56.7585C21.4197 63.0493 26.2283 67.7295 27.4184 67.8627C30.6576 68.2528 53.8805 52.8551 62.917 44.1548C78.5294 29.3048 84.4735 12.7221 77.3627 3.86368C75.1837 1.18164 73.3846 0.301519 69.4126 0.0233677ZM74.0239 9.30865C75.3367 13.293 74.8456 16.5629 71.6745 23.1073C67.3335 32.3053 61.3408 38.9357 49.3124 47.8832C43.8223 52.0069 31.0799 60.4034 27.4083 62.3893C25.5574 63.3321 16.2609 50.8627 11.7547 41.3814C6.46724 30.2194 4.31451 17.2886 6.94137 12.3874C9.28804 8.00899 12.5461 7.73623 18.2417 11.546C22.3437 14.2492 26.1695 19.6646 28.4758 26.0321C32.2047 36.0222 34.9514 36.2325 41.2505 26.9903C43.3985 23.7672 46.5292 19.809 48.1026 18.1287C55.9651 9.89266 67.4068 4.07972 71.3269 6.18076C72.4376 6.77605 73.6251 8.1696 74.0239 9.30865Z" fill="#1600FF"/>
</svg>
