<svg width="10" height="11" viewBox="0 0 10 11" fill="none" xmlns="http://www.w3.org/2000/svg">
<path d="M3.91389 10.0196H3.62035C3.81605 9.08023 3.83562 7.6908 3.69863 6.57534C2.48532 6.77104 1.01761 7.182 0.0782778 7.61252L0 7.37769C0.939335 6.86888 2.25049 5.87084 3.24853 4.95108C2.66145 4.09002 1.83953 3.11155 1.17417 2.62231L1.36986 2.36791C2.09393 2.79843 3.38552 3.22896 4.46184 3.50294C5.16634 2.36791 5.85127 0.919765 6.10567 0H6.39922C6.22309 0.900196 6.18395 2.28963 6.30137 3.42466C7.53425 3.20939 9.00196 2.79843 9.90215 2.36791L10 2.64188C9.08023 3.13111 7.74951 4.12916 6.7319 5.06849C7.33855 5.90998 8.16047 6.86888 8.82583 7.37769L8.63014 7.61252C7.8865 7.20156 6.63405 6.77104 5.5773 6.51663C4.8728 7.63209 4.18787 9.06066 3.91389 10.0196Z" fill="#E9FF00"/>
</svg>
