<svg width="31" height="37" viewBox="0 0 31 37" fill="none" xmlns="http://www.w3.org/2000/svg">
<path d="M27.5591 2.10615C26.4882 3.30154 23.8958 6.54615 21.7542 9.27846C19.6126 12.0677 17.6964 14.1169 17.471 13.8323C17.1892 13.6046 16.6256 11.3277 16.1184 8.82308C15.1039 3.75692 14.5404 2.90308 13.2441 3.98462C12.6805 4.44 12.3988 5.63538 12.3988 7.45692C12.3988 10.0754 11.7225 11.4415 10.9898 10.2462C10.5389 9.50615 3.2124 5.12308 2.42339 5.12308C2.08525 5.12308 1.63438 5.52154 1.46531 6.03384C1.23988 6.66 2.59247 8.48154 6.0303 12.0108C8.67913 14.8 10.8207 17.1338 10.6517 17.2477C10.5389 17.3615 8.39734 18.1585 5.91759 19.0123C1.01444 20.7769 0 21.3462 0 22.5415C0 23.5092 2.08525 23.5662 7.38289 22.7123C9.5245 22.3138 11.4407 22.2 11.6097 22.3708C11.8352 22.5415 10.4262 25.3877 8.51006 28.6323C5.18493 34.3815 4.28321 37 5.80487 37C6.76296 37 8.79184 34.78 12.0606 29.9985C13.5259 27.8923 14.9349 26.1846 15.1039 26.1846C15.3294 26.1846 16.1184 27.8354 16.7947 29.8277C18.0346 33.3569 19.3308 34.8369 19.8944 33.4138C20.0071 33.0154 19.838 30.7385 19.4435 28.2908C19.049 25.8431 18.9926 23.7369 19.2181 23.5662C19.4999 23.3954 21.1906 24.3062 22.9377 25.5015C31.8986 31.6492 33.7021 30.8523 26.77 23.9077C24.4594 21.5738 22.5432 19.5246 22.5432 19.2969C22.5432 19.0692 24.1776 18.4431 26.2065 17.9308C32.0113 16.3369 31.7295 14.6862 25.812 15.1415C24.0085 15.2554 22.5432 15.2554 22.5432 15.0846C22.5432 14.9138 24.3466 11.9538 26.4883 8.42462C30.1515 2.50462 31.166 0 29.9261 0C29.6443 0 28.5735 0.96769 27.5591 2.10615Z" fill="#1600FF"/>
</svg>
