<svg width="89" height="74" viewBox="0 0 89 74" fill="none" xmlns="http://www.w3.org/2000/svg">
<path d="M84.3473 68.5219C86.7328 65.9707 88.7786 65.395 87.9192 63.3481C87.2002 61.5601 84.1174 60.6879 80.4716 59.064C72.0059 55.1966 67.3427 56.6381 75.1557 60.6921C77.4685 61.8665 79.2229 63.0926 79.1341 63.3922C78.8086 64.4904 69.8373 66.1752 64.1722 66.2335C47.5411 66.4621 31.0889 57.2944 28.2155 46.2874C27.3711 42.7243 27.3992 40.6147 28.3699 40.0879C28.6935 39.9123 30.3797 40.0864 32.1417 40.5544C40.1417 42.3288 47.793 39.6009 48.2263 34.8419C48.5745 31.4695 42.5551 26.861 37.2672 26.3795C33.9651 26.1608 29.9064 27.9444 27.1732 30.9356L24.7581 33.5866L20.0291 30.121C11.0813 23.6668 6.00364 16.9536 3.22914 8.37738C2.69329 6.15489 1.84849 3.83934 1.38828 2.32666L0.562052 0.128361C0.494917 -0.0502615 0.250799 -0.0407202 0.212205 0.146158C-0.495615 3.57343 0.628751 10.3485 2.66625 15.4156C4.85825 20.8444 10.8957 27.9563 17.9652 33.4191L23.5797 37.7446L23.6234 41.9935C23.9443 59.4122 48.078 73.6268 70.0772 69.3961C72.8285 68.9084 75.5797 68.4207 76.1677 68.2692C76.9203 68.1121 76.8776 68.8055 75.8808 70.5193C75.1022 71.8633 74.7525 73.2259 75.1925 73.5736C76.2481 74.5925 81.4551 71.6831 84.3473 68.5219ZM34.5236 36.9161C30.2231 36.4015 28.9809 34.7298 31.248 32.578C33.7389 30.221 38.4759 29.9962 41.5799 32.1655C44.7837 34.3643 44.7837 34.3643 43.5004 35.3958C41.9637 36.7324 38.3952 37.4122 34.5236 36.9161Z" fill="#1600FF"/>
</svg>
