<svg width="335" height="197" viewBox="0 0 335 197" fill="none" xmlns="http://www.w3.org/2000/svg">
<path d="M275.836 96.1318C275.007 97.0573 273 99.5693 271.342 101.685C269.684 103.844 268.2 105.43 268.026 105.21C267.808 105.034 267.371 103.271 266.979 101.332C266.193 97.4098 265.757 96.7488 264.754 97.5861C264.317 97.9387 264.099 98.8641 264.099 100.274C264.099 102.302 263.575 103.359 263.008 102.434C262.659 101.861 256.987 98.4675 256.376 98.4675C256.114 98.4675 255.765 98.776 255.634 99.1726C255.46 99.6574 256.507 101.068 259.169 103.8C261.219 105.959 262.877 107.766 262.746 107.854C262.659 107.942 261.001 108.559 259.081 109.22C255.285 110.587 254.5 111.027 254.5 111.953C254.5 112.702 256.114 112.746 260.216 112.085C261.874 111.776 263.357 111.688 263.488 111.821C263.663 111.953 262.572 114.156 261.088 116.668C258.514 121.119 257.816 123.146 258.994 123.146C259.736 123.146 261.307 121.428 263.837 117.726C264.972 116.095 266.062 114.773 266.193 114.773C266.368 114.773 266.979 116.051 267.502 117.594C268.462 120.326 269.466 121.472 269.902 120.37C269.989 120.062 269.858 118.299 269.553 116.404C269.248 114.509 269.204 112.878 269.379 112.746C269.597 112.614 270.906 113.319 272.258 114.244C279.196 119.004 280.592 118.387 275.225 113.01C273.436 111.204 271.953 109.617 271.953 109.441C271.953 109.265 273.218 108.78 274.789 108.383C279.283 107.149 279.065 105.871 274.483 106.224C273.087 106.312 271.953 106.312 271.953 106.18C271.953 106.047 273.349 103.756 275.007 101.024C277.843 96.4403 278.628 94.5013 277.669 94.5013C277.45 94.5013 276.621 95.2504 275.836 96.1318Z" fill="#1600FF"/>
<path d="M306.649 193.151C324.943 193.151 330.828 188.979 330.828 181.918C330.828 178.815 328.795 176.783 323.446 176.783C316.171 176.783 307.719 176.89 300.23 176.89C291.993 177.639 286.964 182.025 286.964 185.876C286.964 189.835 291.03 193.151 306.649 193.151ZM334.572 179.136C334.572 187.267 323.232 197.003 302.049 197.003C287.071 197.003 281.829 193.579 281.829 188.016C281.829 182.881 288.141 179.35 295.523 177.318V176.89C288.783 176.676 285.787 174.001 285.787 170.899C285.787 167.154 290.602 163.624 299.695 162.447V162.019C290.816 160.2 286.215 153.995 286.215 145.757C286.215 136.236 295.737 127.677 307.933 127.677H335L333.716 132.812C326.013 131.85 318.738 129.496 312.105 128.533L311.998 129.175C319.701 131.101 327.832 135.594 327.832 145.329C327.832 153.353 319.166 162.661 305.793 162.661C293.811 162.661 290.388 166.298 290.388 168.973C290.388 171.22 292.741 172.717 297.984 172.717C306.435 172.717 315.529 172.075 324.302 172.075C331.363 172.075 334.572 174.536 334.572 179.136ZM291.458 143.297C291.458 154.423 296.593 160.628 308.04 160.628C318.738 160.628 322.376 156.135 322.376 147.041C322.376 135.701 316.706 129.175 306.542 129.175C298.519 129.175 291.458 132.919 291.458 143.297Z" fill="#0F0F0F"/>
<path d="M271.031 147.897C271.031 174.322 271.459 174.964 274.348 175.499L280.66 176.462V177.425H256.696V176.462L260.868 175.927C266.003 175.285 266.11 175.071 266.11 154.102C266.11 133.775 265.896 133.347 261.831 133.133L256.696 132.919V131.957C262.901 130.459 266.859 128.961 270.496 127.142L271.138 127.463C271.138 135.273 271.031 140.729 271.031 147.897Z" fill="#0F0F0F"/>
<path d="M230.21 175.927C242.513 175.927 248.076 168.545 248.076 152.069C248.076 136.022 242.513 130.031 230.531 130.031C221.758 130.031 212.557 135.273 212.557 147.469C212.557 158.167 212.878 164.8 213.627 171.861C218.655 174.322 222.507 175.927 230.21 175.927ZM228.605 178.494C220.902 178.494 214.483 175.392 210.097 171.54C209.134 173.466 208.171 175.606 207.743 177.425H206.887C207.422 170.15 207.636 164.052 207.636 154.102C207.636 112.165 207.315 111.416 203.357 110.881L198.221 110.453V109.49C207.422 108.099 209.883 107.35 211.915 104.569L212.557 104.783C212.557 122.007 212.343 133.24 212.343 141.585H212.771C214.483 133.882 222.186 126.607 233.954 126.607C249.574 126.607 253.639 137.734 253.639 148.753C253.639 165.549 242.62 178.494 228.605 178.494Z" fill="#0F0F0F"/>
<path d="M161.058 172.289C171.97 172.289 186.52 143.725 188.232 127.57L194.223 127.677C192.19 133.775 185.557 158.381 185.557 166.405C185.557 170.471 186.948 172.289 189.409 172.289C191.869 172.289 193.902 169.829 199.037 159.237L199.572 159.558C194.009 174.429 191.014 178.494 187.055 178.494C183.953 178.494 181.385 174.75 181.385 168.652C181.385 162.982 187.483 145.222 191.12 135.059L190.372 134.738C174.645 165.549 167.798 178.494 160.951 178.494C156.779 178.494 153.248 173.787 153.248 168.759C153.248 159.772 164.696 145.543 164.696 137.52C164.696 134.952 163.091 132.491 160.309 132.491C157.742 132.491 155.709 133.454 149.611 145.436L149.076 145.009C154.318 131.208 156.886 126.5 160.523 126.5C163.412 126.5 166.193 130.887 166.193 135.487C166.193 146.506 156.993 160.093 156.779 167.689C156.779 170.578 158.918 172.289 161.058 172.289Z" fill="#0F0F0F"/>
<path d="M145.864 157.312C143.617 171.968 138.91 178.494 130.886 178.494C122.007 178.494 119.439 173.145 119.439 166.084C119.439 162.554 119.867 156.563 119.867 151.214C119.867 143.832 119.867 138.162 119.439 131.315C116.443 131.422 113.555 131.422 110.559 131.529V130.673C121.044 128.64 121.579 128.212 124.467 117.514L125.323 117.621C125.002 120.616 124.788 124.04 124.681 127.677H146.185L144.687 131.956C138.054 131.529 131.314 131.315 124.574 131.315C124.467 137.52 124.574 144.153 124.574 150.572C124.574 155.386 124.467 160.2 124.788 165.228C125.109 171.754 128.319 174.322 133.668 174.322C140.836 174.322 142.868 168.117 144.794 157.098L145.864 157.312Z" fill="#0F0F0F"/>
<path d="M102.926 177.959C98.8603 177.959 96.5067 175.178 96.2927 167.796H95.8648C93.2972 173.573 86.3432 178.494 78.5334 178.494C69.0119 178.494 63.4487 173.466 63.4487 167.582C63.4487 161.698 71.6865 158.488 96.5067 153.567C96.5067 151.962 96.5067 149.93 96.5067 147.576C96.5067 133.882 94.581 129.175 85.2734 129.175C76.0728 129.175 71.2585 132.919 71.2585 141.692C71.2585 143.404 71.4725 145.864 71.7935 148.325L65.8024 149.395C65.6954 133.668 77.2496 126.607 87.4131 126.607C97.1486 126.607 101.535 130.78 101.535 141.264C101.428 144.367 101.214 149.93 101.214 154.423C101.214 171.54 101.856 174.108 104.851 174.108C108.061 174.108 109.773 171.112 110.842 158.274L111.912 158.381C110.629 172.717 108.703 177.959 102.926 177.959ZM82.0639 173.68C87.3061 173.68 95.1159 171.006 96.0787 164.8C96.5067 162.661 96.5067 161.163 96.5067 156.028C86.6642 157.419 78.1055 159.13 72.3284 160.949C69.6538 161.805 68.37 163.089 68.37 165.014C68.37 170.364 72.9703 173.68 82.0639 173.68Z" fill="#0F0F0F"/>
<path d="M36.0535 175.713C48.0357 175.713 51.3521 171.219 52.636 162.768L54.3477 150.572H55.2036C55.6315 156.563 56.1664 162.019 56.4874 167.689C50.3893 173.787 42.5795 178.494 30.3834 178.494C11.6612 178.494 0 164.159 0 144.046C0 126.072 14.3358 112.165 34.1278 112.165C43.9703 112.165 51.4591 115.267 56.2734 117.514C55.7385 124.361 55.4175 130.994 55.2036 137.734H54.3477L53.0639 127.998C51.8871 120.081 45.682 115.267 29.7415 115.267C13.4799 115.267 5.34917 124.147 5.34917 140.408C5.34917 162.233 16.9034 175.713 36.0535 175.713Z" fill="#0F0F0F"/>
<path d="M160.44 50.0624C160.44 47.8158 158.515 45.89 154.877 45.89C148.137 45.89 140.648 53.6999 125.671 90.6092H119.145C123.745 76.1664 133.267 55.8395 133.267 50.0624C133.267 47.8158 131.341 45.89 127.703 45.89C121.07 45.89 113.689 53.6999 98.7108 90.6092H92.0778C96.4641 77.5572 105.023 56.6954 105.023 51.0253C105.023 47.9227 103.739 45.6761 100.85 45.6761C98.2829 45.6761 95.8222 47.0669 90.1521 58.5141L89.6172 58.1932C94.8594 44.2853 97.427 39.685 101.064 39.685C104.06 39.685 106.521 44.2853 106.521 50.4903C106.521 55.7325 102.776 71.8871 100.316 82.0505L101.171 82.3715C113.154 52.0951 119.68 39.685 127.168 39.685C131.555 39.685 134.55 44.4993 134.55 49.2065C134.55 54.5557 130.057 71.7801 127.382 82.1575L128.238 82.3715C140.22 51.9881 146.746 39.685 154.449 39.685C158.836 39.685 162.045 43.9643 162.045 48.1367C162.045 54.3418 153.914 72.208 153.914 79.6969C153.914 83.3343 155.091 85.474 157.231 85.474C159.798 85.474 161.724 82.9064 166.859 72.422L167.501 72.7429C161.938 87.6137 158.729 91.6791 154.77 91.6791C151.347 91.6791 148.886 87.3997 148.886 82.1575C148.886 72.7429 160.44 55.5186 160.44 50.0624Z" fill="#0F0F0F"/>
<path d="M75.503 28.6657C72.9354 28.6657 71.2237 27.2749 71.2237 24.6003C71.2237 21.4978 73.2563 20 76.3589 20C79.0335 20 80.7452 21.3908 80.7452 24.0654C80.7452 27.1679 78.7125 28.6657 75.503 28.6657ZM79.2474 61.0817C79.2474 87.5067 79.6754 88.1486 82.5639 88.6835L88.876 89.6463V90.6092H64.9116V89.6463L69.084 89.1114C74.2192 88.4695 74.3262 88.2556 74.3262 67.2868C74.3262 46.9599 74.1122 46.5319 70.0468 46.318L64.9116 46.104V45.1412C71.1167 43.6434 75.0751 42.1456 78.7125 40.3269L79.3544 40.6478C79.3544 48.4576 79.2474 53.9138 79.2474 61.0817Z" fill="#0F0F0F"/>
<path d="M64.7251 90.6092H53.7058C46.4309 80.7667 34.3418 66.217 26.6389 57.1233C44.5052 38.6152 48.9985 34.2288 48.9985 31.3403C48.9985 29.4146 47.6077 28.4517 44.9331 28.1308L34.8767 27.3819V26.419H61.7296V27.3819L60.1248 27.7028C56.7013 28.6657 49.8544 35.1917 30.5973 54.3418C39.6909 66.003 49.7474 77.6642 57.2363 85.0461C60.4458 88.2556 61.5156 88.4696 64.7251 89.6464V90.6092ZM12.3031 59.37C12.3031 29.4146 12.4101 28.7727 6.95394 28.1308L0.106984 27.3819V26.419H29.4205V27.3819L21.8247 28.2378C17.6523 28.6657 17.1174 29.6285 17.1174 57.6583C17.1174 87.3997 17.1174 87.9346 23.0015 88.7905L29.5275 89.6464V90.6092H0V89.6464L6.63299 88.7905C12.4101 87.9346 12.3031 87.2927 12.3031 59.37Z" fill="#0F0F0F"/>
</svg>
