<svg width="821" height="153" viewBox="0 0 821 153" fill="none" xmlns="http://www.w3.org/2000/svg">
<path d="M777.22 144.742C804.61 144.742 812.91 138.932 812.91 128.972C812.91 124.49 810.088 121.502 801.788 121.502C790.998 121.502 777.718 121.668 766.264 121.668C754.146 122.332 746.842 128.64 746.842 134.118C746.842 139.928 752.984 144.742 777.22 144.742ZM819.55 123.494C819.55 135.944 802.784 152.378 767.758 152.378C744.352 152.378 735.72 147.066 735.72 138.766C735.72 130.964 746.012 125.652 757.632 122.498V121.668C746.676 121.336 741.53 117.352 741.53 112.206C741.53 105.732 750.494 100.42 764.272 98.594V97.93C749.83 94.942 742.36 85.314 742.36 72.366C742.36 57.26 757.134 43.814 777.718 43.814H820.38L818.222 53.608C806.104 51.284 794.484 47.134 783.528 45.474L783.362 46.636C795.812 49.956 809.922 57.26 809.922 72.366C809.922 84.982 796.144 98.76 774.066 98.76C756.138 99.092 750.992 104.072 750.992 107.89C750.992 111.044 754.146 113.036 761.118 113.036C773.9 113.036 789.338 111.708 802.95 111.708C814.404 111.708 819.55 115.858 819.55 123.494ZM753.98 67.718C753.98 85.812 761.782 95.44 778.216 95.44C792.99 95.44 797.97 89.298 797.97 75.354C797.97 57.094 789.172 46.636 774.564 46.636C763.276 46.636 753.98 51.948 753.98 67.718Z" fill="#0F0F0F"/>
<path d="M721 75.686C721 116.522 721.664 117.518 726.146 118.348L735.11 120.008V122H695.934V120.008L702.076 119.012C709.38 117.85 709.546 117.02 709.546 85.978C709.546 54.77 709.214 53.94 703.404 53.276L695.934 52.612V50.786C706.226 48.296 713.53 45.806 719.838 42.818L721.166 43.316C721.166 55.434 721 64.564 721 75.686Z" fill="#0F0F0F"/>
<path d="M724.907 2.10615C723.836 3.30154 721.244 6.54615 719.102 9.27846C716.961 12.0677 715.044 14.1169 714.819 13.8323C714.537 13.6046 713.974 11.3277 713.466 8.82308C712.452 3.75692 711.888 2.90308 710.592 3.98462C710.029 4.44 709.747 5.63538 709.747 7.45692C709.747 10.0754 709.07 11.4415 708.338 10.2462C707.887 9.50615 700.56 5.12308 699.771 5.12308C699.433 5.12308 698.982 5.52154 698.813 6.03384C698.588 6.66 699.94 8.48154 703.378 12.0108C706.027 14.8 708.169 17.1338 708 17.2477C707.887 17.3615 705.745 18.1585 703.266 19.0123C698.362 20.7769 697.348 21.3462 697.348 22.5415C697.348 23.5092 699.433 23.5662 704.731 22.7123C706.873 22.3138 708.789 22.2 708.958 22.3708C709.183 22.5415 707.774 25.3877 705.858 28.6323C702.533 34.3815 701.631 37 703.153 37C704.111 37 706.14 34.78 709.409 29.9985C710.874 27.8923 712.283 26.1846 712.452 26.1846C712.677 26.1846 713.466 27.8354 714.143 29.8277C715.383 33.3569 716.679 34.8369 717.242 33.4138C717.355 33.0154 717.186 30.7385 716.792 28.2908C716.397 25.8431 716.341 23.7369 716.566 23.5662C716.848 23.3954 718.539 24.3062 720.286 25.5015C729.247 31.6492 731.05 30.8523 724.118 23.9077C721.807 21.5738 719.891 19.5246 719.891 19.2969C719.891 19.0692 721.526 18.4431 723.554 17.9308C729.359 16.3369 729.078 14.6862 723.16 15.1415C721.357 15.2554 719.891 15.2554 719.891 15.0846C719.891 14.9138 721.695 11.9538 723.836 8.42462C727.5 2.50462 728.514 0 727.274 0C726.992 0 725.922 0.96769 724.907 2.10615Z" fill="#1600FF"/>
<path d="M654.529 119.51C671.793 119.51 679.097 109.384 679.097 83.986C679.097 59.252 671.461 49.79 654.197 49.79C642.079 49.79 629.297 56.928 629.297 74.192C629.297 94.776 629.795 103.906 630.791 113.368C638.095 117.02 644.071 119.51 654.529 119.51ZM652.205 123.66C640.253 123.66 629.629 118.846 622.657 113.036C620.665 116.356 618.673 119.842 618.341 122.166H616.681C617.677 111.708 617.843 99.922 617.843 83.654C617.843 22.566 617.511 21.404 611.701 20.408L604.231 19.412V17.586C619.337 15.096 624.483 13.602 627.969 8.95398L629.297 9.28599C629.131 34.02 628.799 51.782 628.799 65.062L629.463 65.228C632.285 53.774 644.403 42.154 661.999 42.154C685.073 42.154 691.547 58.422 691.547 76.682C691.547 103.408 674.283 123.66 652.205 123.66Z" fill="#0F0F0F"/>
<path d="M548.246 110.38C566.008 110.38 584.932 70.042 586.426 43.316L598.71 43.814C595.058 54.438 585.43 89.464 585.43 101.748C585.43 107.89 587.754 110.546 591.572 110.546C595.058 110.546 598.212 107.226 605.35 92.286L606.678 92.95C598.046 117.02 593.232 123.66 586.592 123.66C581.612 123.66 577.296 117.684 577.296 108.554C577.296 99.424 586.758 73.362 592.236 58.256L591.074 57.758C567.502 103.408 556.546 123.66 545.756 123.66C537.954 123.66 532.476 116.19 532.476 108.554C532.476 94.278 551.234 73.528 551.234 61.742C551.234 57.924 548.744 54.438 544.096 54.438C539.78 54.438 536.46 56.098 528.16 72.532L526.832 71.868C534.966 49.956 539.282 41.822 545.59 41.822C550.238 41.822 554.886 48.628 554.886 56.098C554.886 72.034 541.44 92.618 541.274 103.574C541.108 108.056 544.76 110.38 548.246 110.38Z" fill="#0F0F0F"/>
<path d="M522.674 89.464C519.686 113.202 512.548 123.66 498.936 123.66C484.66 123.66 480.344 115.36 480.344 104.238C480.344 98.926 481.008 89.63 481.008 81.33C481.008 70.208 481.008 61.244 480.344 51.118C476.028 51.118 471.712 51.118 467.396 51.284V49.624C483.498 45.806 485.988 43.98 491.632 27.546L493.292 27.878C492.794 32.692 492.462 38.004 492.296 43.814H523.504L520.682 51.948C511.22 51.45 501.758 51.118 492.13 50.952C491.964 59.916 491.964 69.378 491.964 78.508C491.964 86.144 491.964 94.112 492.296 101.748C492.96 111.376 497.276 115.028 505.078 115.028C515.37 115.028 518.192 105.898 520.848 89.298L522.674 89.464Z" fill="#0F0F0F"/>
<path d="M454.919 122.83C447.283 122.83 443.299 117.518 443.133 106.23H442.303C438.319 115.692 427.363 123.66 415.577 123.66C400.969 123.66 392.669 115.36 392.669 105.898C392.669 96.7681 406.447 91.1241 443.299 83.6541C443.299 81.8281 443.299 79.6701 443.299 77.1801C443.299 53.4421 440.311 46.8021 426.699 46.8021C414.083 46.8021 407.609 52.2801 407.609 64.3981C407.609 67.3861 408.107 72.0341 408.605 76.1841L396.155 78.1761C395.657 53.7741 415.577 42.1541 432.177 42.1541C447.449 42.1541 454.753 48.7941 454.753 64.5641C454.753 69.7101 454.255 79.0061 454.255 86.1441C454.255 110.878 455.251 114.53 459.567 114.53C464.049 114.53 466.539 110.214 468.199 90.7921H469.859C468.033 114.032 464.215 122.83 454.919 122.83ZM423.213 113.866C430.849 113.866 441.141 110.214 442.469 101.748C443.133 98.2621 443.299 95.9381 443.299 87.4721C429.853 89.4641 418.067 91.6221 409.767 94.2781C405.617 95.4401 403.625 97.4321 403.625 100.752C403.625 108.886 410.265 113.866 423.213 113.866Z" fill="#0F0F0F"/>
<path d="M352.308 118.514C369.24 118.514 373.722 112.538 376.046 97.93L378.702 79.836H380.528C381.524 89.962 382.354 98.096 383.018 106.894C374.054 115.858 361.272 123.66 341.518 123.66C312.136 123.66 294.706 101.914 294.706 71.37C294.706 40.826 319.274 20.74 348.988 20.74C364.094 20.74 375.05 25.056 382.188 28.376C381.358 39.498 380.86 50.122 380.528 61.078H378.702L376.046 46.802C372.892 33.522 362.766 26.052 340.356 26.052C318.278 26.052 307.488 38.004 307.488 62.904C307.488 98.76 324.254 118.514 352.308 118.514Z" fill="#0F0F0F"/>
<path d="M251.377 61.078C251.377 57.592 248.389 54.936 242.745 54.936C231.955 54.936 220.335 66.722 199.419 122H185.973C192.945 98.76 209.711 69.876 209.711 61.078C209.711 57.592 206.557 54.936 200.913 54.936C190.123 54.936 178.669 66.722 157.753 122H143.975C150.781 101.914 166.219 70.706 166.219 62.24C166.219 57.758 163.895 54.438 158.915 54.438C154.433 54.438 150.449 56.596 142.813 72.532L141.485 71.868C149.619 49.956 153.935 41.822 160.243 41.822C165.223 41.822 169.041 49.126 169.041 60.912C169.041 68.548 164.061 90.792 160.575 105.898L161.903 106.23C179.333 60.082 189.459 41.822 200.747 41.822C208.051 41.822 212.533 50.288 212.533 58.588C212.533 66.556 206.059 90.792 202.407 105.898L203.569 106.23C220.999 60.082 231.291 41.822 243.077 41.822C250.215 41.822 255.361 48.794 255.361 55.766C255.361 65.56 243.077 91.124 243.077 102.246C243.077 107.558 245.069 110.546 248.389 110.546C252.207 110.546 255.195 107.06 262.333 92.12L263.495 92.784C255.029 117.02 249.717 123.66 242.579 123.66C236.769 123.66 232.287 116.854 232.287 108.554C232.287 94.112 251.377 69.544 251.377 61.078Z" fill="#0F0F0F"/>
<path d="M118.466 27.546C113.486 27.546 110.332 25.056 110.332 20.408C110.332 14.764 114.482 12.108 120.79 12.108C125.77 12.108 128.924 14.432 128.924 19.08C128.924 24.724 124.774 27.546 118.466 27.546ZM126.766 75.686C126.766 116.522 127.43 117.518 131.912 118.348L140.876 120.008V122H101.7V120.008L107.842 119.012C115.146 117.85 115.312 117.02 115.312 85.978C115.312 54.77 114.98 53.94 109.17 53.276L101.7 52.612V50.786C111.992 48.296 119.296 45.806 125.604 42.818L126.932 43.316C126.932 55.434 126.766 64.564 126.766 75.686Z" fill="#0F0F0F"/>
<path d="M101.592 122H80.842C70.882 108.388 53.452 85.646 41.998 70.54C68.89 43.316 75.198 36.676 75.198 32.028C75.198 28.542 72.542 26.218 68.06 25.554L54.614 24.392V22.4H97.276V24.392L94.62 25.056C89.142 26.716 79.514 35.514 51.128 64.066C65.736 84.982 80.178 103.242 91.134 113.7C95.45 118.016 97.11 118.348 101.592 120.008V122ZM17.762 74.192C17.762 27.712 17.596 26.716 9.96 25.72L0 24.392V22.4H46.812V24.392L35.856 25.886C29.714 26.716 29.05 28.376 29.05 69.876C29.05 116.356 29.216 117.186 37.516 118.514L46.978 120.008V122H0V120.008L9.628 118.514C17.762 117.186 17.762 115.858 17.762 74.192Z" fill="#0F0F0F"/>
</svg>
