<svg width="527" height="277" viewBox="0 0 527 277" fill="none" xmlns="http://www.w3.org/2000/svg">
<path d="M482.862 269.294C510.252 269.294 518.552 263.484 518.552 253.524C518.552 249.042 515.73 246.054 507.43 246.054C496.64 246.054 483.36 246.22 471.906 246.22C459.788 246.884 452.484 253.192 452.484 258.67C452.484 264.48 458.626 269.294 482.862 269.294ZM525.192 248.046C525.192 260.496 508.426 276.93 473.4 276.93C449.994 276.93 441.362 271.618 441.362 263.318C441.362 255.516 451.654 250.204 463.274 247.05V246.22C452.318 245.888 447.172 241.904 447.172 236.758C447.172 230.284 456.136 224.972 469.914 223.146V222.482C455.472 219.494 448.002 209.866 448.002 196.918C448.002 181.812 462.776 168.366 483.36 168.366H526.022L523.864 178.16C511.746 175.836 500.126 171.686 489.17 170.026L489.004 171.188C501.454 174.508 515.564 181.812 515.564 196.918C515.564 209.534 501.786 223.312 479.708 223.312C461.78 223.644 456.634 228.624 456.634 232.442C456.634 235.596 459.788 237.588 466.76 237.588C479.542 237.588 494.98 236.26 508.592 236.26C520.046 236.26 525.192 240.41 525.192 248.046ZM459.622 192.27C459.622 210.364 467.424 219.992 483.858 219.992C498.632 219.992 503.612 213.85 503.612 199.906C503.612 181.646 494.814 171.188 480.206 171.188C468.918 171.188 459.622 176.5 459.622 192.27Z" fill="#0F0F0F"/>
<path d="M426.642 200.238C426.642 241.074 427.306 242.07 431.788 242.9L440.752 244.56V246.552H401.576V244.56L407.718 243.564C415.022 242.402 415.188 241.572 415.188 210.53C415.188 179.322 414.856 178.492 409.046 177.828L401.576 177.164V175.338C411.868 172.848 419.172 170.358 425.48 167.37L426.808 167.868C426.808 179.986 426.642 189.116 426.642 200.238Z" fill="#0F0F0F"/>
<path d="M430.549 126.658C429.478 127.854 426.886 131.098 424.744 133.83C422.603 136.62 420.687 138.669 420.461 138.384C420.179 138.157 419.616 135.88 419.109 133.375C418.094 128.309 417.531 127.455 416.234 128.537C415.671 128.992 415.389 130.187 415.389 132.009C415.389 134.627 414.713 135.994 413.98 134.798C413.529 134.058 406.203 129.675 405.414 129.675C405.075 129.675 404.625 130.074 404.456 130.586C404.23 131.212 405.583 133.034 409.021 136.563C411.669 139.352 413.811 141.686 413.642 141.8C413.529 141.914 411.388 142.71 408.908 143.564C404.005 145.329 402.99 145.898 402.99 147.094C402.99 148.061 405.075 148.118 410.373 147.264C412.515 146.866 414.431 146.752 414.6 146.923C414.825 147.094 413.416 149.94 411.5 153.184C408.175 158.934 407.273 161.552 408.795 161.552C409.753 161.552 411.782 159.332 415.051 154.55C416.516 152.444 417.925 150.737 418.094 150.737C418.32 150.737 419.109 152.387 419.785 154.38C421.025 157.909 422.321 159.389 422.885 157.966C422.997 157.567 422.828 155.29 422.434 152.843C422.039 150.395 421.983 148.289 422.208 148.118C422.49 147.947 424.181 148.858 425.928 150.054C434.889 156.201 436.692 155.404 429.76 148.46C427.45 146.126 425.533 144.077 425.533 143.849C425.533 143.621 427.168 142.995 429.197 142.483C435.002 140.889 434.72 139.238 428.802 139.694C426.999 139.807 425.533 139.807 425.533 139.637C425.533 139.466 427.337 136.506 429.478 132.977C433.142 127.057 434.156 124.552 432.916 124.552C432.635 124.552 431.564 125.52 430.549 126.658Z" fill="#1600FF"/>
<path d="M360.171 244.062C377.435 244.062 384.739 233.936 384.739 208.538C384.739 183.804 377.103 174.342 359.839 174.342C347.721 174.342 334.939 181.48 334.939 198.744C334.939 219.328 335.437 228.458 336.433 237.92C343.737 241.572 349.713 244.062 360.171 244.062ZM357.847 248.212C345.895 248.212 335.271 243.398 328.299 237.588C326.307 240.908 324.315 244.394 323.983 246.718H322.323C323.319 236.26 323.485 224.474 323.485 208.206C323.485 147.118 323.153 145.956 317.343 144.96L309.873 143.964V142.138C324.979 139.648 330.125 138.154 333.611 133.506L334.939 133.838C334.773 158.572 334.441 176.334 334.441 189.614L335.105 189.78C337.927 178.326 350.045 166.706 367.641 166.706C390.715 166.706 397.189 182.974 397.189 201.234C397.189 227.96 379.925 248.212 357.847 248.212Z" fill="#0F0F0F"/>
<path d="M253.888 234.932C271.65 234.932 290.574 194.594 292.068 167.868L304.352 168.366C300.7 178.99 291.072 214.016 291.072 226.3C291.072 232.442 293.396 235.098 297.214 235.098C300.7 235.098 303.854 231.778 310.992 216.838L312.32 217.502C303.688 241.572 298.874 248.212 292.234 248.212C287.254 248.212 282.938 242.236 282.938 233.106C282.938 223.976 292.4 197.914 297.878 182.808L296.716 182.31C273.144 227.96 262.188 248.212 251.398 248.212C243.596 248.212 238.118 240.742 238.118 233.106C238.118 218.83 256.876 198.08 256.876 186.294C256.876 182.476 254.386 178.99 249.738 178.99C245.422 178.99 242.102 180.65 233.802 197.084L232.474 196.42C240.608 174.508 244.924 166.374 251.232 166.374C255.88 166.374 260.528 173.18 260.528 180.65C260.528 196.586 247.082 217.17 246.916 228.126C246.75 232.608 250.402 234.932 253.888 234.932Z" fill="#0F0F0F"/>
<path d="M228.317 214.016C225.329 237.754 218.191 248.212 204.579 248.212C190.303 248.212 185.987 239.912 185.987 228.79C185.987 223.478 186.651 214.182 186.651 205.882C186.651 194.76 186.651 185.796 185.987 175.67C181.671 175.67 177.355 175.67 173.039 175.836V174.176C189.141 170.358 191.631 168.532 197.275 152.098L198.935 152.43C198.437 157.244 198.105 162.556 197.939 168.366H229.147L226.325 176.5C216.863 176.002 207.401 175.67 197.773 175.504C197.607 184.468 197.607 193.93 197.607 203.06C197.607 210.696 197.607 218.664 197.939 226.3C198.603 235.928 202.919 239.58 210.721 239.58C221.013 239.58 223.835 230.45 226.491 213.85L228.317 214.016Z" fill="#0F0F0F"/>
<path d="M160.561 247.382C152.925 247.382 148.941 242.07 148.775 230.782H147.945C143.961 240.244 133.005 248.212 121.219 248.212C106.611 248.212 98.3113 239.912 98.3113 230.45C98.3113 221.32 112.089 215.676 148.941 208.206C148.941 206.38 148.941 204.222 148.941 201.732C148.941 177.994 145.953 171.354 132.341 171.354C119.725 171.354 113.251 176.832 113.251 188.95C113.251 191.938 113.749 196.586 114.247 200.736L101.797 202.728C101.299 178.326 121.219 166.706 137.819 166.706C153.091 166.706 160.395 173.346 160.395 189.116C160.395 194.262 159.897 203.558 159.897 210.696C159.897 235.43 160.893 239.082 165.209 239.082C169.691 239.082 172.181 234.766 173.841 215.344H175.501C173.675 238.584 169.857 247.382 160.561 247.382ZM128.855 238.418C136.491 238.418 146.783 234.766 148.111 226.3C148.775 222.814 148.941 220.49 148.941 212.024C135.495 214.016 123.709 216.174 115.409 218.83C111.259 219.992 109.267 221.984 109.267 225.304C109.267 233.438 115.907 238.418 128.855 238.418Z" fill="#0F0F0F"/>
<path d="M57.95 243.066C74.882 243.066 79.364 237.09 81.688 222.482L84.344 204.388H86.17C87.166 214.514 87.996 222.648 88.66 231.446C79.696 240.41 66.914 248.212 47.16 248.212C17.778 248.212 0.347992 226.466 0.347992 195.922C0.347992 165.378 24.916 145.292 54.63 145.292C69.736 145.292 80.692 149.608 87.83 152.928C87 164.05 86.502 174.674 86.17 185.63H84.344L81.688 171.354C78.534 158.074 68.408 150.604 45.998 150.604C23.92 150.604 13.13 162.556 13.13 187.456C13.13 223.312 29.896 243.066 57.95 243.066Z" fill="#0F0F0F"/>
<path d="M251.377 48.97C251.377 45.484 248.389 42.828 242.745 42.828C231.955 42.828 220.335 54.614 199.419 109.892H185.973C192.945 86.652 209.711 57.768 209.711 48.97C209.711 45.484 206.557 42.828 200.913 42.828C190.123 42.828 178.669 54.614 157.753 109.892H143.975C150.781 89.806 166.219 58.598 166.219 50.132C166.219 45.65 163.895 42.33 158.915 42.33C154.433 42.33 150.449 44.488 142.813 60.424L141.485 59.76C149.619 37.848 153.935 29.714 160.243 29.714C165.223 29.714 169.041 37.018 169.041 48.804C169.041 56.44 164.061 78.684 160.575 93.79L161.903 94.122C179.333 47.974 189.459 29.714 200.747 29.714C208.051 29.714 212.533 38.18 212.533 46.48C212.533 54.448 206.059 78.684 202.407 93.79L203.569 94.122C220.999 47.974 231.291 29.714 243.077 29.714C250.215 29.714 255.361 36.686 255.361 43.658C255.361 53.452 243.077 79.016 243.077 90.138C243.077 95.45 245.069 98.438 248.389 98.438C252.207 98.438 255.195 94.952 262.333 80.012L263.495 80.676C255.029 104.912 249.717 111.552 242.579 111.552C236.769 111.552 232.287 104.746 232.287 96.446C232.287 82.004 251.377 57.436 251.377 48.97Z" fill="#0F0F0F"/>
<path d="M118.466 15.438C113.486 15.438 110.332 12.948 110.332 8.3C110.332 2.65601 114.482 0 120.79 0C125.77 0 128.924 2.32401 128.924 6.97201C128.924 12.616 124.774 15.438 118.466 15.438ZM126.766 63.578C126.766 104.414 127.43 105.41 131.912 106.24L140.876 107.9V109.892H101.7V107.9L107.842 106.904C115.146 105.742 115.312 104.912 115.312 73.87C115.312 42.662 114.98 41.832 109.17 41.168L101.7 40.504V38.678C111.992 36.188 119.296 33.698 125.604 30.71L126.932 31.208C126.932 43.326 126.766 52.456 126.766 63.578Z" fill="#0F0F0F"/>
<path d="M101.592 109.892H80.842C70.882 96.28 53.452 73.538 41.998 58.432C68.89 31.208 75.198 24.568 75.198 19.92C75.198 16.434 72.542 14.11 68.06 13.446L54.614 12.284V10.292H97.276V12.284L94.62 12.948C89.142 14.608 79.514 23.406 51.128 51.958C65.736 72.874 80.178 91.134 91.134 101.592C95.45 105.908 97.11 106.24 101.592 107.9V109.892ZM17.762 62.084C17.762 15.604 17.596 14.608 9.96 13.612L0 12.284V10.292H46.812V12.284L35.856 13.778C29.714 14.608 29.05 16.268 29.05 57.768C29.05 104.248 29.216 105.078 37.516 106.406L46.978 107.9V109.892H0V107.9L9.628 106.406C17.762 105.078 17.762 103.75 17.762 62.084Z" fill="#0F0F0F"/>
</svg>
