<svg width="806" height="144" viewBox="0 0 806 144" fill="none" xmlns="http://www.w3.org/2000/svg">
<path d="M761.201 137.448C789.587 137.448 798.717 130.974 798.717 120.018C798.717 115.204 795.563 112.05 787.263 112.05C775.975 112.05 762.861 112.216 751.241 112.216C738.459 113.378 730.657 120.184 730.657 126.16C730.657 132.302 736.965 137.448 761.201 137.448ZM804.527 115.702C804.527 128.318 786.931 143.424 754.063 143.424C730.823 143.424 722.689 138.112 722.689 129.48C722.689 121.512 732.483 116.034 743.937 112.88V112.216C733.479 111.884 728.831 107.734 728.831 102.92C728.831 97.11 736.301 91.632 750.411 89.806V89.142C736.633 86.32 729.495 76.692 729.495 63.91C729.495 49.136 744.269 35.856 763.193 35.856H805.191L803.199 43.824C791.247 42.33 779.959 38.678 769.667 37.184L769.501 38.18C781.453 41.168 794.069 48.14 794.069 63.246C794.069 75.696 780.623 90.138 759.873 90.138C741.281 90.138 735.969 95.782 735.969 99.932C735.969 103.418 739.621 105.742 747.755 105.742C760.869 105.742 774.979 104.746 788.591 104.746C799.547 104.746 804.527 108.564 804.527 115.702ZM737.629 60.092C737.629 77.356 745.597 86.984 763.359 86.984C779.959 86.984 785.603 80.012 785.603 65.902C785.603 48.306 776.805 38.18 761.035 38.18C748.585 38.18 737.629 43.99 737.629 60.092Z" fill="#0F0F0F"/>
<path d="M705.934 67.23C705.934 108.232 706.598 109.228 711.08 110.058L720.874 111.552V113.046H683.69V111.552L690.164 110.722C698.132 109.726 698.298 109.394 698.298 76.858C698.298 45.318 697.966 44.654 691.658 44.322L683.69 43.99V42.496C693.318 40.172 699.46 37.848 705.104 35.026L706.1 35.524C706.1 47.642 705.934 56.108 705.934 67.23Z" fill="#0F0F0F"/>
<path d="M642.594 110.722C661.684 110.722 670.316 99.268 670.316 73.704C670.316 48.804 661.684 39.508 643.092 39.508C629.48 39.508 615.204 47.642 615.204 66.566C615.204 83.166 615.702 93.458 616.864 104.414C624.666 108.232 630.642 110.722 642.594 110.722ZM640.104 114.706C628.152 114.706 618.192 109.892 611.386 103.916C609.892 106.904 608.398 110.224 607.734 113.046H606.406C607.236 101.758 607.568 92.296 607.568 76.858C607.568 11.786 607.07 10.624 600.928 9.794L592.96 9.13V7.636C607.236 5.47801 611.054 4.316 614.208 0L615.204 0.332006C615.204 27.058 614.872 44.488 614.872 57.436H615.536C618.192 45.484 630.144 34.196 648.404 34.196C672.64 34.196 678.948 51.46 678.948 68.558C678.948 94.62 661.85 114.706 640.104 114.706Z" fill="#0F0F0F"/>
<path d="M535.296 105.078C552.228 105.078 574.804 60.756 577.46 35.69L586.756 35.856C583.602 45.318 573.31 83.498 573.31 95.948C573.31 102.256 575.468 105.078 579.286 105.078C583.104 105.078 586.258 101.26 594.226 84.826L595.056 85.324C586.424 108.398 581.776 114.706 575.634 114.706C570.82 114.706 566.836 108.896 566.836 99.434C566.836 90.636 576.298 63.08 581.942 47.31L580.78 46.812C556.378 94.62 545.754 114.706 535.13 114.706C528.656 114.706 523.178 107.402 523.178 99.6C523.178 85.656 540.94 63.578 540.94 51.128C540.94 47.144 538.45 43.326 534.134 43.326C530.15 43.326 526.996 44.82 517.534 63.412L516.704 62.748C524.838 41.334 528.822 34.03 534.466 34.03C538.948 34.03 543.264 40.836 543.264 47.974C543.264 65.072 528.988 86.154 528.656 97.94C528.656 102.422 531.976 105.078 535.296 105.078Z" fill="#0F0F0F"/>
<path d="M511.72 81.838C508.234 104.58 500.93 114.706 488.48 114.706C474.702 114.706 470.718 106.406 470.718 95.45C470.718 89.972 471.382 80.676 471.382 72.376C471.382 60.922 471.382 52.124 470.718 41.5C466.07 41.666 461.588 41.666 456.94 41.832V40.504C473.208 37.35 474.038 36.686 478.52 20.086L479.848 20.252C479.35 24.9 479.018 30.212 478.852 35.856H512.218L509.894 42.496C499.602 41.832 489.144 41.5 478.686 41.5C478.52 51.128 478.686 61.42 478.686 71.38C478.686 78.85 478.52 86.32 479.018 94.122C479.516 104.248 484.496 108.232 492.796 108.232C503.918 108.232 507.072 98.604 510.06 81.506L511.72 81.838Z" fill="#0F0F0F"/>
<path d="M445.095 113.876C438.787 113.876 435.135 109.56 434.803 98.106H434.139C430.155 107.07 419.365 114.706 407.247 114.706C392.473 114.706 383.841 106.904 383.841 97.774C383.841 88.644 396.623 83.664 435.135 76.028C435.135 73.538 435.135 70.384 435.135 66.732C435.135 45.484 432.147 38.18 417.705 38.18C403.429 38.18 395.959 43.99 395.959 57.602C395.959 60.258 396.291 64.076 396.789 67.894L387.493 69.554C387.327 45.152 405.255 34.196 421.025 34.196C436.131 34.196 442.937 40.67 442.937 56.938C442.771 61.752 442.439 70.384 442.439 77.356C442.439 103.916 443.435 107.9 448.083 107.9C453.063 107.9 455.719 103.252 457.379 83.332L459.039 83.498C457.047 105.742 454.059 113.876 445.095 113.876ZM412.725 107.236C420.859 107.236 432.977 103.086 434.471 93.458C435.135 90.138 435.135 87.814 435.135 79.846C419.863 82.004 406.583 84.66 397.619 87.482C393.469 88.81 391.477 90.802 391.477 93.79C391.477 102.09 398.615 107.236 412.725 107.236Z" fill="#0F0F0F"/>
<path d="M341.334 110.39C359.926 110.39 365.072 103.418 367.064 90.304L369.72 71.38H371.048C371.712 80.676 372.542 89.142 373.04 97.94C363.578 107.402 351.46 114.706 332.536 114.706C303.486 114.706 285.392 92.462 285.392 61.254C285.392 33.366 307.636 11.786 338.346 11.786C353.618 11.786 365.238 16.6 372.708 20.086C371.878 30.71 371.38 41.002 371.048 51.46H369.72L367.728 36.354C365.902 24.07 356.274 16.6 331.54 16.6C306.308 16.6 293.692 30.378 293.692 55.61C293.692 89.474 311.62 110.39 341.334 110.39Z" fill="#0F0F0F"/>
<path d="M248.945 50.132C248.945 46.646 245.957 43.658 240.313 43.658C229.855 43.658 218.235 55.776 194.995 113.046H184.869C192.007 90.636 206.781 59.096 206.781 50.132C206.781 46.646 203.793 43.658 198.149 43.658C187.857 43.658 176.403 55.776 153.163 113.046H142.871C149.677 92.794 162.957 60.424 162.957 51.626C162.957 46.812 160.965 43.326 156.483 43.326C152.499 43.326 148.681 45.484 139.883 63.246L139.053 62.748C147.187 41.168 151.171 34.03 156.815 34.03C161.463 34.03 165.281 41.168 165.281 50.796C165.281 58.93 159.471 83.996 155.653 99.766L156.981 100.264C175.573 53.286 185.699 34.03 197.319 34.03C204.125 34.03 208.773 41.5 208.773 48.804C208.773 57.104 201.801 83.83 197.651 99.932L198.979 100.264C217.571 53.12 227.697 34.03 239.649 34.03C246.455 34.03 251.435 40.67 251.435 47.144C251.435 56.772 238.819 84.494 238.819 96.114C238.819 101.758 240.645 105.078 243.965 105.078C247.949 105.078 250.937 101.094 258.905 84.826L259.901 85.324C251.269 108.398 246.289 114.706 240.147 114.706C234.835 114.706 231.017 108.066 231.017 99.932C231.017 85.324 248.945 58.598 248.945 50.132Z" fill="#0F0F0F"/>
<path d="M117.153 16.932C113.169 16.932 110.513 14.774 110.513 10.624C110.513 5.81002 113.667 3.48602 118.481 3.48602C122.631 3.48602 125.287 5.64403 125.287 9.79402C125.287 14.608 122.133 16.932 117.153 16.932ZM122.963 67.23C122.963 108.232 123.627 109.228 128.109 110.058L137.903 111.552V113.046H100.719V111.552L107.193 110.722C115.161 109.726 115.327 109.394 115.327 76.858C115.327 45.318 114.995 44.654 108.687 44.322L100.719 43.99V42.496C110.347 40.172 116.489 37.848 122.133 35.026L123.129 35.524C123.129 47.642 122.963 56.108 122.963 67.23Z" fill="#0F0F0F"/>
<path d="M100.43 113.046H83.332C72.044 97.774 53.286 75.198 41.334 61.088C69.056 32.37 76.028 25.564 76.028 21.082C76.028 18.094 73.87 16.6 69.72 16.102L54.116 14.94V13.446H95.782V14.94L93.292 15.438C87.98 16.932 77.356 27.058 47.476 56.772C61.586 74.866 77.19 92.96 88.81 104.414C93.79 109.394 95.45 109.726 100.43 111.552V113.046ZM19.09 64.574C19.09 18.094 19.256 17.098 10.79 16.102L0.166 14.94V13.446H45.65V14.94L33.864 16.268C27.39 16.932 26.56 18.426 26.56 61.918C26.56 108.066 26.56 108.896 35.69 110.224L45.816 111.552V113.046H0V111.552L10.292 110.224C19.256 108.896 19.09 107.9 19.09 64.574Z" fill="#0F0F0F"/>
</svg>
